# MagicaVoxel @ Ephtracy

# group
o 

# material
mtllib cooler.mtl
usemtl palette

# normals
vn -1 0 0
vn 1 0 0
vn 0 0 1
vn 0 0 -1
vn 0 -1 0
vn 0 1 0

# texcoords
vt 0.306641 0.5
vt 0.751953 0.5
vt 0.845703 0.5
vt 0.919922 0.5
vt 0.962891 0.5
vt 0.970703 0.5

# verts
v 0.2 0 0.2
v 0.2 0 -2
v 0.2 1.7 0.2
v 0.2 1.7 -2
v 0.3 1.9 -5.96046e-08
v 0.3 1.9 -1.8
v 0.3 2.3 -5.96046e-08
v 0.3 2.3 -1.8
v 0.3 2.6 -5.96046e-08
v 0.3 2.6 -1.8
v 0.3 2.8 -5.96046e-08
v 0.3 2.8 -1.8
v 0.3 3.1 -5.96046e-08
v 0.3 3.1 -1.8
v 0.3 3.3 -5.96046e-08
v 0.3 3.3 -1.8
v 0.3 3.5 -5.96046e-08
v 0.3 3.5 -1.8
v 0.3 3.7 -5.96046e-08
v 0.3 3.7 -1.8
v 0.4 1.7 -5.96046e-08
v 0.4 1.7 -1.8
v 0.4 1.9 0.0999999
v 0.4 1.9 -5.96046e-08
v 0.4 1.9 -1.8
v 0.4 1.9 -1.9
v 0.4 2.3 0.0999999
v 0.4 2.3 -5.96046e-08
v 0.4 2.3 -1.8
v 0.4 2.3 -1.9
v 0.4 2.6 0.0999999
v 0.4 2.6 -5.96046e-08
v 0.4 2.6 -1.8
v 0.4 2.6 -1.9
v 0.4 2.8 0.0999999
v 0.4 2.8 -5.96046e-08
v 0.4 2.8 -1.8
v 0.4 2.8 -1.9
v 0.4 3.1 0.0999999
v 0.4 3.1 -5.96046e-08
v 0.4 3.1 -1.8
v 0.4 3.1 -1.9
v 0.4 3.3 0.0999999
v 0.4 3.3 -5.96046e-08
v 0.4 3.3 -1.8
v 0.4 3.3 -1.9
v 0.4 3.5 0.0999999
v 0.4 3.5 -5.96046e-08
v 0.4 3.5 -1.8
v 0.4 3.5 -1.9
v 0.4 3.7 0.0999999
v 0.4 3.7 -5.96046e-08
v 0.4 3.7 -1.8
v 0.4 3.7 -1.9
v 0.4 3.8 -5.96046e-08
v 0.4 3.8 -1.8
v 0.5 0.1 -5.96046e-08
v 0.5 0.1 -0.5
v 0.5 0.6 -5.96046e-08
v 0.5 0.6 -0.5
v 0.6 1 -5.96046e-08
v 0.6 1 -0.2
v 0.6 1.3 0.0999999
v 0.6 1.3 -5.96046e-08
v 0.6 1.4 0.0999999
v 0.6 1.4 -5.96046e-08
v 0.6 1.6 -5.96046e-08
v 0.6 1.6 -0.2
v 0.9 0.2 -0.2
v 0.9 0.2 -0.4
v 0.9 0.3 -0.1
v 0.9 0.3 -0.2
v 0.9 0.6 -0.1
v 0.9 0.6 -0.4
v 1.4 1 -5.96046e-08
v 1.4 1 -0.2
v 1.4 1.3 0.0999999
v 1.4 1.3 -5.96046e-08
v 1.4 1.4 0.0999999
v 1.4 1.4 -5.96046e-08
v 1.4 1.6 -5.96046e-08
v 1.4 1.6 -0.2
v 1.9 0.1 0.2
v 1.9 0.1 -0.7
v 1.9 1.6 0.2
v 1.9 1.6 -0.7
v 0.3 0.1 0.2
v 0.3 0.1 -0.7
v 0.3 1.6 0.2
v 0.3 1.6 -0.7
v 0.6 0.2 -0.2
v 0.6 0.2 -0.4
v 0.6 0.3 -0.1
v 0.6 0.3 -0.2
v 0.6 0.6 -0.1
v 0.6 0.6 -0.4
v 0.8 1 -5.96046e-08
v 0.8 1 -0.2
v 0.8 1.3 0.0999999
v 0.8 1.3 -5.96046e-08
v 0.8 1.4 0.0999999
v 0.8 1.4 -5.96046e-08
v 0.8 1.6 -5.96046e-08
v 0.8 1.6 -0.2
v 1 0.1 -5.96046e-08
v 1 0.1 -0.5
v 1 0.6 -5.96046e-08
v 1 0.6 -0.5
v 1.6 1 -5.96046e-08
v 1.6 1 -0.2
v 1.6 1.3 0.0999999
v 1.6 1.3 -5.96046e-08
v 1.6 1.4 0.0999999
v 1.6 1.4 -5.96046e-08
v 1.6 1.6 -5.96046e-08
v 1.6 1.6 -0.2
v 1.8 1.7 -5.96046e-08
v 1.8 1.7 -0.7
v 1.8 1.7 -1.8
v 1.8 1.9 0.0999999
v 1.8 1.9 -5.96046e-08
v 1.8 1.9 -1.8
v 1.8 1.9 -1.9
v 1.8 2.3 0.0999999
v 1.8 2.3 -5.96046e-08
v 1.8 2.3 -1.8
v 1.8 2.3 -1.9
v 1.8 2.6 0.0999999
v 1.8 2.6 -5.96046e-08
v 1.8 2.6 -1.8
v 1.8 2.6 -1.9
v 1.8 2.8 0.0999999
v 1.8 2.8 -5.96046e-08
v 1.8 2.8 -1.8
v 1.8 2.8 -1.9
v 1.8 3.1 0.0999999
v 1.8 3.1 -5.96046e-08
v 1.8 3.1 -1.8
v 1.8 3.1 -1.9
v 1.8 3.3 0.0999999
v 1.8 3.3 -5.96046e-08
v 1.8 3.3 -1.8
v 1.8 3.3 -1.9
v 1.8 3.5 0.0999999
v 1.8 3.5 -5.96046e-08
v 1.8 3.5 -1.8
v 1.8 3.5 -1.9
v 1.8 3.7 0.0999999
v 1.8 3.7 -5.96046e-08
v 1.8 3.7 -1.8
v 1.8 3.7 -1.9
v 1.8 3.8 -5.96046e-08
v 1.8 3.8 -1.8
v 1.9 1.9 -5.96046e-08
v 1.9 1.9 -1.8
v 1.9 2.3 -5.96046e-08
v 1.9 2.3 -1.8
v 1.9 2.6 -5.96046e-08
v 1.9 2.6 -1.8
v 1.9 2.8 -5.96046e-08
v 1.9 2.8 -1.8
v 1.9 3.1 -5.96046e-08
v 1.9 3.1 -1.8
v 1.9 3.3 -5.96046e-08
v 1.9 3.3 -1.8
v 1.9 3.5 -5.96046e-08
v 1.9 3.5 -1.8
v 1.9 3.7 -5.96046e-08
v 1.9 3.7 -1.8
v 2 0 0.2
v 2 0 -2
v 2 1.7 0.2
v 2 1.7 -2
v 0.2 0 0.2
v 0.2 1.7 0.2
v 0.3 0.1 0.2
v 0.3 1.6 0.2
v 1.9 0.1 0.2
v 1.9 1.6 0.2
v 2 0 0.2
v 2 1.7 0.2
v 0.4 1.9 0.0999999
v 0.4 2.3 0.0999999
v 0.4 2.6 0.0999999
v 0.4 2.8 0.0999999
v 0.4 3.1 0.0999999
v 0.4 3.3 0.0999999
v 0.4 3.5 0.0999999
v 0.4 3.7 0.0999999
v 0.6 1.3 0.0999999
v 0.6 1.4 0.0999999
v 0.8 1.3 0.0999999
v 0.8 1.4 0.0999999
v 1.4 1.3 0.0999999
v 1.4 1.4 0.0999999
v 1.6 1.3 0.0999999
v 1.6 1.4 0.0999999
v 1.8 1.9 0.0999999
v 1.8 2.3 0.0999999
v 1.8 2.6 0.0999999
v 1.8 2.8 0.0999999
v 1.8 3.1 0.0999999
v 1.8 3.3 0.0999999
v 1.8 3.5 0.0999999
v 1.8 3.7 0.0999999
v 0.3 1.9 -5.96046e-08
v 0.3 2.3 -5.96046e-08
v 0.3 2.6 -5.96046e-08
v 0.3 2.8 -5.96046e-08
v 0.3 3.1 -5.96046e-08
v 0.3 3.3 -5.96046e-08
v 0.3 3.5 -5.96046e-08
v 0.3 3.7 -5.96046e-08
v 0.4 1.7 -5.96046e-08
v 0.4 1.9 -5.96046e-08
v 0.4 2.3 -5.96046e-08
v 0.4 2.6 -5.96046e-08
v 0.4 2.8 -5.96046e-08
v 0.4 3.1 -5.96046e-08
v 0.4 3.3 -5.96046e-08
v 0.4 3.5 -5.96046e-08
v 0.4 3.7 -5.96046e-08
v 0.4 3.8 -5.96046e-08
v 0.5 0.1 -5.96046e-08
v 0.5 0.6 -5.96046e-08
v 0.6 1 -5.96046e-08
v 0.6 1.3 -5.96046e-08
v 0.6 1.4 -5.96046e-08
v 0.6 1.6 -5.96046e-08
v 0.8 1 -5.96046e-08
v 0.8 1.3 -5.96046e-08
v 0.8 1.4 -5.96046e-08
v 0.8 1.6 -5.96046e-08
v 1 0.1 -5.96046e-08
v 1 0.6 -5.96046e-08
v 1.4 1 -5.96046e-08
v 1.4 1.3 -5.96046e-08
v 1.4 1.4 -5.96046e-08
v 1.4 1.6 -5.96046e-08
v 1.6 1 -5.96046e-08
v 1.6 1.3 -5.96046e-08
v 1.6 1.4 -5.96046e-08
v 1.6 1.6 -5.96046e-08
v 1.8 1.7 -5.96046e-08
v 1.8 1.9 -5.96046e-08
v 1.8 2.3 -5.96046e-08
v 1.8 2.6 -5.96046e-08
v 1.8 2.8 -5.96046e-08
v 1.8 3.1 -5.96046e-08
v 1.8 3.3 -5.96046e-08
v 1.8 3.5 -5.96046e-08
v 1.8 3.7 -5.96046e-08
v 1.8 3.8 -5.96046e-08
v 1.9 1.9 -5.96046e-08
v 1.9 2.3 -5.96046e-08
v 1.9 2.6 -5.96046e-08
v 1.9 2.8 -5.96046e-08
v 1.9 3.1 -5.96046e-08
v 1.9 3.3 -5.96046e-08
v 1.9 3.5 -5.96046e-08
v 1.9 3.7 -5.96046e-08
v 0.6 0.2 -0.4
v 0.6 0.6 -0.4
v 0.9 0.2 -0.4
v 0.9 0.6 -0.4
v 0.3 0.1 -0.7
v 0.3 1.6 -0.7
v 1.9 0.1 -0.7
v 1.9 1.6 -0.7
v 0.6 0.3 -0.1
v 0.6 0.6 -0.1
v 0.9 0.3 -0.1
v 0.9 0.6 -0.1
v 0.6 0.2 -0.2
v 0.6 0.3 -0.2
v 0.6 1 -0.2
v 0.6 1.6 -0.2
v 0.8 1 -0.2
v 0.8 1.6 -0.2
v 0.9 0.2 -0.2
v 0.9 0.3 -0.2
v 1.4 1 -0.2
v 1.4 1.6 -0.2
v 1.6 1 -0.2
v 1.6 1.6 -0.2
v 0.5 0.1 -0.5
v 0.5 0.6 -0.5
v 1 0.1 -0.5
v 1 0.6 -0.5
v 0.3 1.9 -1.8
v 0.3 2.3 -1.8
v 0.3 2.6 -1.8
v 0.3 2.8 -1.8
v 0.3 3.1 -1.8
v 0.3 3.3 -1.8
v 0.3 3.5 -1.8
v 0.3 3.7 -1.8
v 0.4 1.7 -1.8
v 0.4 1.9 -1.8
v 0.4 2.3 -1.8
v 0.4 2.6 -1.8
v 0.4 2.8 -1.8
v 0.4 3.1 -1.8
v 0.4 3.3 -1.8
v 0.4 3.5 -1.8
v 0.4 3.7 -1.8
v 0.4 3.8 -1.8
v 1.8 1.7 -1.8
v 1.8 1.9 -1.8
v 1.8 2.3 -1.8
v 1.8 2.6 -1.8
v 1.8 2.8 -1.8
v 1.8 3.1 -1.8
v 1.8 3.3 -1.8
v 1.8 3.5 -1.8
v 1.8 3.7 -1.8
v 1.8 3.8 -1.8
v 1.9 1.9 -1.8
v 1.9 2.3 -1.8
v 1.9 2.6 -1.8
v 1.9 2.8 -1.8
v 1.9 3.1 -1.8
v 1.9 3.3 -1.8
v 1.9 3.5 -1.8
v 1.9 3.7 -1.8
v 0.4 1.9 -1.9
v 0.4 2.3 -1.9
v 0.4 2.6 -1.9
v 0.4 2.8 -1.9
v 0.4 3.1 -1.9
v 0.4 3.3 -1.9
v 0.4 3.5 -1.9
v 0.4 3.7 -1.9
v 1.8 1.9 -1.9
v 1.8 2.3 -1.9
v 1.8 2.6 -1.9
v 1.8 2.8 -1.9
v 1.8 3.1 -1.9
v 1.8 3.3 -1.9
v 1.8 3.5 -1.9
v 1.8 3.7 -1.9
v 0.2 0 -2
v 0.2 1.7 -2
v 2 0 -2
v 2 1.7 -2
v 0.2 0 0.2
v 2 0 0.2
v 0.2 0 -2
v 2 0 -2
v 0.6 1 -5.96046e-08
v 0.8 1 -5.96046e-08
v 1.4 1 -5.96046e-08
v 1.6 1 -5.96046e-08
v 0.6 1 -0.2
v 0.8 1 -0.2
v 1.4 1 -0.2
v 1.6 1 -0.2
v 0.6 1.3 0.0999999
v 0.8 1.3 0.0999999
v 1.4 1.3 0.0999999
v 1.6 1.3 0.0999999
v 0.6 1.3 -5.96046e-08
v 0.8 1.3 -5.96046e-08
v 1.4 1.3 -5.96046e-08
v 1.6 1.3 -5.96046e-08
v 0.3 1.6 0.2
v 1.9 1.6 0.2
v 0.6 1.6 -5.96046e-08
v 0.8 1.6 -5.96046e-08
v 1.4 1.6 -5.96046e-08
v 1.6 1.6 -5.96046e-08
v 0.6 1.6 -0.2
v 0.8 1.6 -0.2
v 1.4 1.6 -0.2
v 1.6 1.6 -0.2
v 0.3 1.6 -0.7
v 1.9 1.6 -0.7
v 0.4 1.9 0.0999999
v 1.8 1.9 0.0999999
v 0.3 1.9 -5.96046e-08
v 0.4 1.9 -5.96046e-08
v 1.8 1.9 -5.96046e-08
v 1.9 1.9 -5.96046e-08
v 0.3 1.9 -1.8
v 0.4 1.9 -1.8
v 1.8 1.9 -1.8
v 1.9 1.9 -1.8
v 0.4 1.9 -1.9
v 1.8 1.9 -1.9
v 0.3 0.1 0.2
v 1.9 0.1 0.2
v 0.5 0.1 -5.96046e-08
v 1 0.1 -5.96046e-08
v 0.5 0.1 -0.5
v 1 0.1 -0.5
v 0.3 0.1 -0.7
v 1.9 0.1 -0.7
v 0.6 0.2 -0.2
v 0.9 0.2 -0.2
v 0.6 0.2 -0.4
v 0.9 0.2 -0.4
v 0.6 0.3 -0.1
v 0.9 0.3 -0.1
v 0.6 0.3 -0.2
v 0.9 0.3 -0.2
v 0.5 0.6 -5.96046e-08
v 1 0.6 -5.96046e-08
v 0.6 0.6 -0.1
v 0.9 0.6 -0.1
v 0.6 0.6 -0.4
v 0.9 0.6 -0.4
v 0.5 0.6 -0.5
v 1 0.6 -0.5
v 0.6 1.4 0.0999999
v 0.8 1.4 0.0999999
v 1.4 1.4 0.0999999
v 1.6 1.4 0.0999999
v 0.6 1.4 -5.96046e-08
v 0.8 1.4 -5.96046e-08
v 1.4 1.4 -5.96046e-08
v 1.6 1.4 -5.96046e-08
v 0.2 1.7 0.2
v 2 1.7 0.2
v 0.4 1.7 -5.96046e-08
v 1.8 1.7 -5.96046e-08
v 1.8 1.7 -0.7
v 1.9 1.7 -0.7
v 0.4 1.7 -1.8
v 1.8 1.7 -1.8
v 0.4 1.7 -1.9
v 1.9 1.7 -1.9
v 0.2 1.7 -2
v 2 1.7 -2
v 0.4 3.7 0.0999999
v 1.8 3.7 0.0999999
v 0.3 3.7 -5.96046e-08
v 0.4 3.7 -5.96046e-08
v 1.8 3.7 -5.96046e-08
v 1.9 3.7 -5.96046e-08
v 0.3 3.7 -1.8
v 0.4 3.7 -1.8
v 1.8 3.7 -1.8
v 1.9 3.7 -1.8
v 0.4 3.7 -1.9
v 1.8 3.7 -1.9
v 0.4 3.8 -5.96046e-08
v 1.8 3.8 -5.96046e-08
v 0.4 3.8 -1.8
v 1.8 3.8 -1.8

# faces
f 3/5/1 2/5/1 1/5/1
f 4/5/1 2/5/1 3/5/1
f 7/2/1 6/2/1 5/2/1
f 8/2/1 6/2/1 7/2/1
f 9/5/1 8/5/1 7/5/1
f 10/5/1 8/5/1 9/5/1
f 11/2/1 10/2/1 9/2/1
f 12/2/1 10/2/1 11/2/1
f 13/5/1 12/5/1 11/5/1
f 14/5/1 12/5/1 13/5/1
f 15/2/1 14/2/1 13/2/1
f 16/2/1 14/2/1 15/2/1
f 17/5/1 16/5/1 15/5/1
f 18/5/1 16/5/1 17/5/1
f 19/2/1 18/2/1 17/2/1
f 20/2/1 18/2/1 19/2/1
f 24/2/1 22/2/1 21/2/1
f 25/2/1 22/2/1 24/2/1
f 27/2/1 24/2/1 23/2/1
f 28/2/1 24/2/1 27/2/1
f 29/2/1 26/2/1 25/2/1
f 30/2/1 26/2/1 29/2/1
f 31/5/1 28/5/1 27/5/1
f 32/5/1 28/5/1 31/5/1
f 33/5/1 30/5/1 29/5/1
f 34/5/1 30/5/1 33/5/1
f 35/2/1 32/2/1 31/2/1
f 36/2/1 32/2/1 35/2/1
f 37/2/1 34/2/1 33/2/1
f 38/2/1 34/2/1 37/2/1
f 39/5/1 36/5/1 35/5/1
f 40/5/1 36/5/1 39/5/1
f 41/5/1 38/5/1 37/5/1
f 42/5/1 38/5/1 41/5/1
f 43/2/1 40/2/1 39/2/1
f 44/2/1 40/2/1 43/2/1
f 45/2/1 42/2/1 41/2/1
f 46/2/1 42/2/1 45/2/1
f 47/5/1 44/5/1 43/5/1
f 48/5/1 44/5/1 47/5/1
f 49/5/1 46/5/1 45/5/1
f 50/5/1 46/5/1 49/5/1
f 51/2/1 48/2/1 47/2/1
f 52/2/1 48/2/1 51/2/1
f 53/2/1 50/2/1 49/2/1
f 54/2/1 50/2/1 53/2/1
f 55/2/1 53/2/1 52/2/1
f 56/2/1 53/2/1 55/2/1
f 59/6/1 58/6/1 57/6/1
f 60/6/1 58/6/1 59/6/1
f 64/5/1 62/5/1 61/5/1
f 65/3/1 64/3/1 63/3/1
f 66/5/1 62/5/1 64/5/1
f 66/3/1 64/3/1 65/3/1
f 67/5/1 62/5/1 66/5/1
f 68/5/1 62/5/1 67/5/1
f 72/6/1 70/6/1 69/6/1
f 73/6/1 72/6/1 71/6/1
f 74/6/1 70/6/1 72/6/1
f 74/6/1 72/6/1 73/6/1
f 78/5/1 76/5/1 75/5/1
f 79/4/1 78/4/1 77/4/1
f 80/5/1 76/5/1 78/5/1
f 80/4/1 78/4/1 79/4/1
f 81/5/1 76/5/1 80/5/1
f 82/5/1 76/5/1 81/5/1
f 85/5/1 84/5/1 83/5/1
f 86/5/1 84/5/1 85/5/1
f 87/5/2 88/5/2 89/5/2
f 89/5/2 88/5/2 90/5/2
f 91/6/2 92/6/2 94/6/2
f 93/6/2 94/6/2 95/6/2
f 94/6/2 92/6/2 96/6/2
f 95/6/2 94/6/2 96/6/2
f 97/5/2 98/5/2 100/5/2
f 99/3/2 100/3/2 101/3/2
f 100/5/2 98/5/2 102/5/2
f 101/3/2 100/3/2 102/3/2
f 102/5/2 98/5/2 103/5/2
f 103/5/2 98/5/2 104/5/2
f 105/6/2 106/6/2 107/6/2
f 107/6/2 106/6/2 108/6/2
f 109/5/2 110/5/2 112/5/2
f 111/4/2 112/4/2 113/4/2
f 112/5/2 110/5/2 114/5/2
f 113/4/2 112/4/2 114/4/2
f 114/5/2 110/5/2 115/5/2
f 115/5/2 110/5/2 116/5/2
f 117/2/2 118/2/2 121/2/2
f 118/2/2 119/2/2 121/2/2
f 121/2/2 119/2/2 122/2/2
f 120/2/2 121/2/2 124/2/2
f 124/2/2 121/2/2 125/2/2
f 122/2/2 123/2/2 126/2/2
f 126/2/2 123/2/2 127/2/2
f 124/5/2 125/5/2 128/5/2
f 128/5/2 125/5/2 129/5/2
f 126/5/2 127/5/2 130/5/2
f 130/5/2 127/5/2 131/5/2
f 128/2/2 129/2/2 132/2/2
f 132/2/2 129/2/2 133/2/2
f 130/2/2 131/2/2 134/2/2
f 134/2/2 131/2/2 135/2/2
f 132/5/2 133/5/2 136/5/2
f 136/5/2 133/5/2 137/5/2
f 134/5/2 135/5/2 138/5/2
f 138/5/2 135/5/2 139/5/2
f 136/2/2 137/2/2 140/2/2
f 140/2/2 137/2/2 141/2/2
f 138/2/2 139/2/2 142/2/2
f 142/2/2 139/2/2 143/2/2
f 140/5/2 141/5/2 144/5/2
f 144/5/2 141/5/2 145/5/2
f 142/5/2 143/5/2 146/5/2
f 146/5/2 143/5/2 147/5/2
f 144/2/2 145/2/2 148/2/2
f 148/2/2 145/2/2 149/2/2
f 146/2/2 147/2/2 150/2/2
f 150/2/2 147/2/2 151/2/2
f 149/2/2 150/2/2 152/2/2
f 152/2/2 150/2/2 153/2/2
f 154/2/2 155/2/2 156/2/2
f 156/2/2 155/2/2 157/2/2
f 156/5/2 157/5/2 158/5/2
f 158/5/2 157/5/2 159/5/2
f 158/2/2 159/2/2 160/2/2
f 160/2/2 159/2/2 161/2/2
f 160/5/2 161/5/2 162/5/2
f 162/5/2 161/5/2 163/5/2
f 162/2/2 163/2/2 164/2/2
f 164/2/2 163/2/2 165/2/2
f 164/5/2 165/5/2 166/5/2
f 166/5/2 165/5/2 167/5/2
f 166/2/2 167/2/2 168/2/2
f 168/2/2 167/2/2 169/2/2
f 170/5/2 171/5/2 172/5/2
f 172/5/2 171/5/2 173/5/2
f 176/5/3 175/5/3 174/5/3
f 177/5/3 175/5/3 176/5/3
f 178/5/3 176/5/3 174/5/3
f 179/5/3 175/5/3 177/5/3
f 180/5/3 178/5/3 174/5/3
f 180/5/3 179/5/3 178/5/3
f 181/5/3 175/5/3 179/5/3
f 181/5/3 179/5/3 180/5/3
f 192/3/3 191/3/3 190/3/3
f 193/3/3 191/3/3 192/3/3
f 196/4/3 195/4/3 194/4/3
f 197/4/3 195/4/3 196/4/3
f 198/2/3 183/2/3 182/2/3
f 199/5/3 184/5/3 183/5/3
f 199/2/3 183/2/3 198/2/3
f 200/2/3 185/2/3 184/2/3
f 200/5/3 184/5/3 199/5/3
f 201/5/3 186/5/3 185/5/3
f 201/2/3 185/2/3 200/2/3
f 202/2/3 187/2/3 186/2/3
f 202/5/3 186/5/3 201/5/3
f 203/5/3 188/5/3 187/5/3
f 203/2/3 187/2/3 202/2/3
f 204/2/3 189/2/3 188/2/3
f 204/5/3 188/5/3 203/5/3
f 205/2/3 189/2/3 204/2/3
f 215/2/3 207/2/3 206/2/3
f 216/5/3 208/5/3 207/5/3
f 216/2/3 207/2/3 215/2/3
f 217/2/3 209/2/3 208/2/3
f 217/5/3 208/5/3 216/5/3
f 218/5/3 210/5/3 209/5/3
f 218/2/3 209/2/3 217/2/3
f 219/2/3 211/2/3 210/2/3
f 219/5/3 210/5/3 218/5/3
f 220/5/3 212/5/3 211/5/3
f 220/2/3 211/2/3 219/2/3
f 221/2/3 213/2/3 212/2/3
f 221/5/3 212/5/3 220/5/3
f 222/2/3 213/2/3 221/2/3
f 230/5/3 227/5/3 226/5/3
f 231/5/3 227/5/3 230/5/3
f 232/5/3 229/5/3 228/5/3
f 233/5/3 229/5/3 232/5/3
f 234/6/3 225/6/3 224/6/3
f 235/6/3 225/6/3 234/6/3
f 240/5/3 237/5/3 236/5/3
f 241/5/3 237/5/3 240/5/3
f 242/5/3 239/5/3 238/5/3
f 243/5/3 239/5/3 242/5/3
f 244/2/3 215/2/3 214/2/3
f 245/2/3 215/2/3 244/2/3
f 252/2/3 223/2/3 222/2/3
f 253/2/3 223/2/3 252/2/3
f 254/2/3 246/2/3 245/2/3
f 255/5/3 247/5/3 246/5/3
f 255/2/3 246/2/3 254/2/3
f 256/2/3 248/2/3 247/2/3
f 256/5/3 247/5/3 255/5/3
f 257/5/3 249/5/3 248/5/3
f 257/2/3 248/2/3 256/2/3
f 258/2/3 250/2/3 249/2/3
f 258/5/3 249/5/3 257/5/3
f 259/5/3 251/5/3 250/5/3
f 259/2/3 250/2/3 258/2/3
f 260/2/3 252/2/3 251/2/3
f 260/5/3 251/5/3 259/5/3
f 261/2/3 252/2/3 260/2/3
f 264/6/3 263/6/3 262/6/3
f 265/6/3 263/6/3 264/6/3
f 268/5/3 267/5/3 266/5/3
f 269/5/3 267/5/3 268/5/3
f 270/6/4 271/6/4 272/6/4
f 272/6/4 271/6/4 273/6/4
f 276/5/4 277/5/4 278/5/4
f 278/5/4 277/5/4 279/5/4
f 274/6/4 275/6/4 280/6/4
f 280/6/4 275/6/4 281/6/4
f 282/5/4 283/5/4 284/5/4
f 284/5/4 283/5/4 285/5/4
f 286/6/4 287/6/4 288/6/4
f 288/6/4 287/6/4 289/6/4
f 290/2/4 291/2/4 299/2/4
f 291/5/4 292/5/4 300/5/4
f 299/2/4 291/2/4 300/2/4
f 292/2/4 293/2/4 301/2/4
f 300/5/4 292/5/4 301/5/4
f 293/5/4 294/5/4 302/5/4
f 301/2/4 293/2/4 302/2/4
f 294/2/4 295/2/4 303/2/4
f 302/5/4 294/5/4 303/5/4
f 295/5/4 296/5/4 304/5/4
f 303/2/4 295/2/4 304/2/4
f 296/2/4 297/2/4 305/2/4
f 304/5/4 296/5/4 305/5/4
f 305/2/4 297/2/4 306/2/4
f 298/2/4 299/2/4 308/2/4
f 308/2/4 299/2/4 309/2/4
f 306/2/4 307/2/4 316/2/4
f 316/2/4 307/2/4 317/2/4
f 309/2/4 310/2/4 318/2/4
f 310/5/4 311/5/4 319/5/4
f 318/2/4 310/2/4 319/2/4
f 311/2/4 312/2/4 320/2/4
f 319/5/4 311/5/4 320/5/4
f 312/5/4 313/5/4 321/5/4
f 320/2/4 312/2/4 321/2/4
f 313/2/4 314/2/4 322/2/4
f 321/5/4 313/5/4 322/5/4
f 314/5/4 315/5/4 323/5/4
f 322/2/4 314/2/4 323/2/4
f 315/2/4 316/2/4 324/2/4
f 323/5/4 315/5/4 324/5/4
f 324/2/4 316/2/4 325/2/4
f 326/2/4 327/2/4 334/2/4
f 327/5/4 328/5/4 335/5/4
f 334/2/4 327/2/4 335/2/4
f 328/2/4 329/2/4 336/2/4
f 335/5/4 328/5/4 336/5/4
f 329/5/4 330/5/4 337/5/4
f 336/2/4 329/2/4 337/2/4
f 330/2/4 331/2/4 338/2/4
f 337/5/4 330/5/4 338/5/4
f 331/5/4 332/5/4 339/5/4
f 338/2/4 331/2/4 339/2/4
f 332/2/4 333/2/4 340/2/4
f 339/5/4 332/5/4 340/5/4
f 340/2/4 333/2/4 341/2/4
f 342/5/4 343/5/4 344/5/4
f 344/5/4 343/5/4 345/5/4
f 348/5/5 347/5/5 346/5/5
f 349/5/5 347/5/5 348/5/5
f 354/5/5 351/5/5 350/5/5
f 355/5/5 351/5/5 354/5/5
f 356/5/5 353/5/5 352/5/5
f 357/5/5 353/5/5 356/5/5
f 362/3/5 359/3/5 358/3/5
f 363/3/5 359/3/5 362/3/5
f 364/4/5 361/4/5 360/4/5
f 365/4/5 361/4/5 364/4/5
f 368/5/5 367/5/5 366/5/5
f 369/5/5 367/5/5 368/5/5
f 370/5/5 367/5/5 369/5/5
f 371/5/5 367/5/5 370/5/5
f 372/5/5 368/5/5 366/5/5
f 373/5/5 370/5/5 369/5/5
f 374/5/5 370/5/5 373/5/5
f 375/5/5 367/5/5 371/5/5
f 376/5/5 374/5/5 373/5/5
f 376/5/5 375/5/5 374/5/5
f 376/5/5 372/5/5 366/5/5
f 376/5/5 373/5/5 372/5/5
f 377/5/5 367/5/5 375/5/5
f 377/5/5 375/5/5 376/5/5
f 381/2/5 379/2/5 378/2/5
f 382/2/5 379/2/5 381/2/5
f 384/2/5 381/2/5 380/2/5
f 385/2/5 381/2/5 384/2/5
f 386/2/5 383/2/5 382/2/5
f 387/2/5 383/2/5 386/2/5
f 388/2/5 386/2/5 385/2/5
f 389/2/5 386/2/5 388/2/5
f 390/5/6 391/5/6 392/5/6
f 392/5/6 391/5/6 393/5/6
f 390/5/6 392/5/6 394/5/6
f 393/5/6 391/5/6 395/5/6
f 390/5/6 394/5/6 396/5/6
f 394/5/6 395/5/6 396/5/6
f 395/5/6 391/5/6 397/5/6
f 396/5/6 395/5/6 397/5/6
f 398/6/6 399/6/6 400/6/6
f 400/6/6 399/6/6 401/6/6
f 402/6/6 403/6/6 404/6/6
f 404/6/6 403/6/6 405/6/6
f 406/6/6 407/6/6 408/6/6
f 408/6/6 407/6/6 409/6/6
f 406/6/6 408/6/6 410/6/6
f 409/6/6 407/6/6 411/6/6
f 406/6/6 410/6/6 412/6/6
f 410/6/6 411/6/6 412/6/6
f 411/6/6 407/6/6 413/6/6
f 412/6/6 411/6/6 413/6/6
f 414/3/6 415/3/6 418/3/6
f 418/3/6 415/3/6 419/3/6
f 416/4/6 417/4/6 420/4/6
f 420/4/6 417/4/6 421/4/6
f 422/5/6 423/5/6 424/5/6
f 424/5/6 423/5/6 425/5/6
f 425/5/6 423/5/6 426/5/6
f 426/5/6 423/5/6 427/5/6
f 422/5/6 424/5/6 428/5/6
f 426/1/6 427/1/6 429/1/6
f 422/5/6 428/5/6 430/5/6
f 428/1/6 429/1/6 430/1/6
f 427/5/6 423/5/6 431/5/6
f 430/1/6 429/1/6 431/1/6
f 429/1/6 427/1/6 431/1/6
f 422/5/6 430/5/6 432/5/6
f 430/5/6 431/5/6 432/5/6
f 431/5/6 423/5/6 433/5/6
f 432/5/6 431/5/6 433/5/6
f 434/2/6 435/2/6 437/2/6
f 437/2/6 435/2/6 438/2/6
f 436/2/6 437/2/6 440/2/6
f 440/2/6 437/2/6 441/2/6
f 438/2/6 439/2/6 442/2/6
f 442/2/6 439/2/6 443/2/6
f 441/2/6 442/2/6 444/2/6
f 444/2/6 442/2/6 445/2/6
f 446/2/6 447/2/6 448/2/6
f 448/2/6 447/2/6 449/2/6
