# MagicaVoxel @ Ephtracy

# group
o 

# material
mtllib Battery.mtl
usemtl palette

# normals
vn -1 0 0
vn 1 0 0
vn 0 0 1
vn 0 0 -1
vn 0 -1 0
vn 0 1 0

# texcoords
vt 0.0175781 0.5
vt 0.306641 0.5
vt 0.982422 0.5
vt 0.994141 0.5

# verts
v 0.1 3.1 -0.3
v 0.1 3.1 -0.8
v 0.1 3.2 -0.4
v 0.1 3.2 -0.8
v 0.1 3.3 -0.3
v 0.1 3.3 -0.4
v 0.1 3.3 -0.6
v 0.1 3.4 -0.4
v 0.1 3.4 -0.5
v 0.1 3.4 -0.6
v 0.1 3.4 -0.7
v 0.1 3.5 -0.5
v 0.1 3.5 -0.6
v 0.1 3.5 -0.7
v 0.1 3.5 -0.8
v 0.1 3.6 -0.3
v 0.1 3.6 -0.6
v 0.1 3.7 -0.3
v 0.1 3.7 -0.4
v 0.1 3.7 -0.7
v 0.1 3.7 -0.8
v 0.1 3.8 -0.4
v 0.1 3.8 -0.7
v 0.4 3.7 -0.4
v 0.4 3.7 -0.7
v 0.4 3.8 -0.4
v 0.4 3.8 -0.7
v 0.3 3.7 -0.4
v 0.3 3.7 -0.7
v 0.3 3.8 -0.4
v 0.3 3.8 -0.7
v 0.6 3.1 -0.3
v 0.6 3.1 -0.8
v 0.6 3.2 -0.4
v 0.6 3.2 -0.8
v 0.6 3.3 -0.3
v 0.6 3.3 -0.4
v 0.6 3.3 -0.5
v 0.6 3.4 -0.4
v 0.6 3.4 -0.5
v 0.6 3.4 -0.7
v 0.6 3.5 -0.5
v 0.6 3.5 -0.7
v 0.6 3.5 -0.8
v 0.6 3.6 -0.3
v 0.6 3.6 -0.7
v 0.6 3.7 -0.3
v 0.6 3.7 -0.4
v 0.6 3.7 -0.7
v 0.6 3.7 -0.8
v 0.6 3.8 -0.4
v 0.6 3.8 -0.7
v 0.1 3.1 -0.3
v 0.1 3.3 -0.3
v 0.1 3.6 -0.3
v 0.1 3.7 -0.3
v 0.2 3.2 -0.3
v 0.2 3.3 -0.3
v 0.3 3.2 -0.3
v 0.3 3.3 -0.3
v 0.3 3.4 -0.3
v 0.3 3.5 -0.3
v 0.4 3.2 -0.3
v 0.4 3.3 -0.3
v 0.4 3.4 -0.3
v 0.4 3.5 -0.3
v 0.4 3.6 -0.3
v 0.5 3.2 -0.3
v 0.5 3.3 -0.3
v 0.5 3.4 -0.3
v 0.5 3.5 -0.3
v 0.5 3.6 -0.3
v 0.6 3.1 -0.3
v 0.6 3.3 -0.3
v 0.6 3.6 -0.3
v 0.6 3.7 -0.3
v 0.1 3.7 -0.4
v 0.1 3.8 -0.4
v 0.3 3.7 -0.4
v 0.3 3.8 -0.4
v 0.4 3.7 -0.4
v 0.4 3.8 -0.4
v 0.6 3.7 -0.4
v 0.6 3.8 -0.4
v 0.1 3.7 -0.7
v 0.1 3.8 -0.7
v 0.3 3.7 -0.7
v 0.3 3.8 -0.7
v 0.4 3.7 -0.7
v 0.4 3.8 -0.7
v 0.6 3.7 -0.7
v 0.6 3.8 -0.7
v 0.1 3.1 -0.8
v 0.1 3.2 -0.8
v 0.1 3.5 -0.8
v 0.1 3.7 -0.8
v 0.2 3.2 -0.8
v 0.2 3.3 -0.8
v 0.2 3.4 -0.8
v 0.2 3.5 -0.8
v 0.2 3.6 -0.8
v 0.3 3.2 -0.8
v 0.3 3.3 -0.8
v 0.3 3.4 -0.8
v 0.3 3.5 -0.8
v 0.3 3.6 -0.8
v 0.4 3.3 -0.8
v 0.4 3.4 -0.8
v 0.4 3.5 -0.8
v 0.4 3.6 -0.8
v 0.5 3.5 -0.8
v 0.5 3.6 -0.8
v 0.6 3.1 -0.8
v 0.6 3.2 -0.8
v 0.6 3.5 -0.8
v 0.6 3.7 -0.8
v 0.1 3.1 -0.3
v 0.6 3.1 -0.3
v 0.1 3.1 -0.8
v 0.6 3.1 -0.8
v 0.1 3.7 -0.3
v 0.6 3.7 -0.3
v 0.1 3.7 -0.4
v 0.3 3.7 -0.4
v 0.4 3.7 -0.4
v 0.6 3.7 -0.4
v 0.1 3.7 -0.7
v 0.3 3.7 -0.7
v 0.4 3.7 -0.7
v 0.6 3.7 -0.7
v 0.1 3.7 -0.8
v 0.6 3.7 -0.8
v 0.1 3.8 -0.4
v 0.3 3.8 -0.4
v 0.4 3.8 -0.4
v 0.6 3.8 -0.4
v 0.1 3.8 -0.7
v 0.3 3.8 -0.7
v 0.4 3.8 -0.7
v 0.6 3.8 -0.7

# faces
f 3/4/1 2/4/1 1/4/1
f 4/4/1 2/4/1 3/4/1
f 5/4/1 3/4/1 1/4/1
f 6/1/1 4/1/1 3/1/1
f 6/4/1 3/4/1 5/4/1
f 7/1/1 4/1/1 6/1/1
f 8/1/1 6/1/1 5/1/1
f 8/4/1 7/4/1 6/4/1
f 9/4/1 7/4/1 8/4/1
f 10/1/1 4/1/1 7/1/1
f 10/4/1 7/4/1 9/4/1
f 11/1/1 4/1/1 10/1/1
f 12/1/1 9/1/1 8/1/1
f 12/4/1 10/4/1 9/4/1
f 12/4/1 11/4/1 10/4/1
f 13/4/1 11/4/1 12/4/1
f 14/1/1 4/1/1 11/1/1
f 14/4/1 11/4/1 13/4/1
f 15/1/1 4/1/1 14/1/1
f 16/1/1 13/1/1 12/1/1
f 16/1/1 8/1/1 5/1/1
f 16/1/1 12/1/1 8/1/1
f 17/4/1 15/4/1 14/4/1
f 17/1/1 13/1/1 16/1/1
f 17/4/1 14/4/1 13/4/1
f 18/4/1 17/4/1 16/4/1
f 19/4/1 17/4/1 18/4/1
f 20/4/1 15/4/1 17/4/1
f 20/4/1 17/4/1 19/4/1
f 21/4/1 15/4/1 20/4/1
f 22/3/1 20/3/1 19/3/1
f 23/3/1 20/3/1 22/3/1
f 26/3/1 25/3/1 24/3/1
f 27/3/1 25/3/1 26/3/1
f 28/3/2 29/3/2 30/3/2
f 30/3/2 29/3/2 31/3/2
f 32/4/2 33/4/2 34/4/2
f 34/4/2 33/4/2 35/4/2
f 32/4/2 34/4/2 36/4/2
f 34/1/2 35/1/2 37/1/2
f 36/4/2 34/4/2 37/4/2
f 37/1/2 35/1/2 38/1/2
f 36/1/2 37/1/2 39/1/2
f 37/4/2 38/4/2 39/4/2
f 38/1/2 35/1/2 40/1/2
f 39/4/2 38/4/2 40/4/2
f 40/1/2 35/1/2 41/1/2
f 39/1/2 40/1/2 42/1/2
f 40/4/2 41/4/2 42/4/2
f 41/1/2 35/1/2 43/1/2
f 42/4/2 41/4/2 43/4/2
f 43/1/2 35/1/2 44/1/2
f 36/1/2 39/1/2 45/1/2
f 39/1/2 42/1/2 45/1/2
f 42/1/2 43/1/2 45/1/2
f 43/4/2 44/4/2 46/4/2
f 45/1/2 43/1/2 46/1/2
f 45/4/2 46/4/2 47/4/2
f 47/4/2 46/4/2 48/4/2
f 46/4/2 44/4/2 49/4/2
f 48/4/2 46/4/2 49/4/2
f 49/4/2 44/4/2 50/4/2
f 48/3/2 49/3/2 51/3/2
f 51/3/2 49/3/2 52/3/2
f 57/4/3 54/4/3 53/4/3
f 58/1/3 55/1/3 54/1/3
f 58/4/3 54/4/3 57/4/3
f 59/4/3 57/4/3 53/4/3
f 59/1/3 58/1/3 57/1/3
f 60/1/3 55/1/3 58/1/3
f 60/1/3 58/1/3 59/1/3
f 61/1/3 55/1/3 60/1/3
f 62/1/3 55/1/3 61/1/3
f 63/4/3 59/4/3 53/4/3
f 63/4/3 60/4/3 59/4/3
f 64/1/3 61/1/3 60/1/3
f 64/4/3 60/4/3 63/4/3
f 65/4/3 62/4/3 61/4/3
f 65/1/3 61/1/3 64/1/3
f 66/1/3 55/1/3 62/1/3
f 66/4/3 62/4/3 65/4/3
f 67/4/3 56/4/3 55/4/3
f 67/1/3 55/1/3 66/1/3
f 68/1/3 64/1/3 63/1/3
f 68/4/3 63/4/3 53/4/3
f 69/4/3 65/4/3 64/4/3
f 69/1/3 64/1/3 68/1/3
f 70/1/3 66/1/3 65/1/3
f 70/4/3 65/4/3 69/4/3
f 71/4/3 67/4/3 66/4/3
f 71/1/3 66/1/3 70/1/3
f 72/4/3 56/4/3 67/4/3
f 72/4/3 67/4/3 71/4/3
f 73/4/3 69/4/3 68/4/3
f 73/4/3 68/4/3 53/4/3
f 74/1/3 72/1/3 71/1/3
f 74/4/3 69/4/3 73/4/3
f 74/1/3 71/1/3 70/1/3
f 74/1/3 70/1/3 69/1/3
f 75/4/3 56/4/3 72/4/3
f 75/1/3 72/1/3 74/1/3
f 76/4/3 56/4/3 75/4/3
f 79/3/3 78/3/3 77/3/3
f 80/3/3 78/3/3 79/3/3
f 83/3/3 82/3/3 81/3/3
f 84/3/3 82/3/3 83/3/3
f 85/3/4 86/3/4 87/3/4
f 87/3/4 86/3/4 88/3/4
f 89/3/4 90/3/4 91/3/4
f 91/3/4 90/3/4 92/3/4
f 93/4/4 94/4/4 97/4/4
f 94/1/4 95/1/4 97/1/4
f 97/1/4 95/1/4 98/1/4
f 98/1/4 95/1/4 99/1/4
f 95/4/4 96/4/4 100/4/4
f 99/1/4 95/1/4 100/1/4
f 100/4/4 96/4/4 101/4/4
f 93/4/4 97/4/4 102/4/4
f 97/4/4 98/4/4 102/4/4
f 98/1/4 99/1/4 103/1/4
f 102/4/4 98/4/4 103/4/4
f 99/4/4 100/4/4 104/4/4
f 103/1/4 99/1/4 104/1/4
f 100/1/4 101/1/4 105/1/4
f 104/4/4 100/4/4 105/4/4
f 101/4/4 96/4/4 106/4/4
f 105/1/4 101/1/4 106/1/4
f 103/4/4 104/4/4 107/4/4
f 102/1/4 103/1/4 107/1/4
f 104/1/4 105/1/4 108/1/4
f 107/4/4 104/4/4 108/4/4
f 105/4/4 106/4/4 109/4/4
f 108/1/4 105/1/4 109/1/4
f 106/4/4 96/4/4 110/4/4
f 109/4/4 106/4/4 110/4/4
f 108/1/4 109/1/4 111/1/4
f 107/1/4 108/1/4 111/1/4
f 109/1/4 110/1/4 111/1/4
f 110/4/4 96/4/4 112/4/4
f 111/1/4 110/1/4 112/1/4
f 93/4/4 102/4/4 113/4/4
f 102/1/4 107/1/4 114/1/4
f 113/4/4 102/4/4 114/4/4
f 107/1/4 111/1/4 114/1/4
f 111/4/4 112/4/4 115/4/4
f 114/1/4 111/1/4 115/1/4
f 112/4/4 96/4/4 116/4/4
f 115/4/4 112/4/4 116/4/4
f 119/4/5 118/4/5 117/4/5
f 120/4/5 118/4/5 119/4/5
f 121/4/6 122/4/6 123/4/6
f 123/4/6 122/4/6 124/4/6
f 124/4/6 122/4/6 125/4/6
f 125/4/6 122/4/6 126/4/6
f 124/4/6 125/4/6 128/4/6
f 128/4/6 125/4/6 129/4/6
f 127/4/6 128/4/6 131/4/6
f 129/4/6 130/4/6 131/4/6
f 128/4/6 129/4/6 131/4/6
f 131/4/6 130/4/6 132/4/6
f 133/3/6 134/3/6 137/3/6
f 137/3/6 134/3/6 138/3/6
f 135/3/6 136/3/6 139/3/6
f 139/3/6 136/3/6 140/3/6
